<?xml version="1.0" encoding="utf-8"?>
<!-- Generator: Adobe Illustrator 15.1.0, SVG Export Plug-In  -->
<!DOCTYPE svg PUBLIC "-//W3C//DTD SVG 1.1//EN" "http://www.w3.org/Graphics/SVG/1.1/DTD/svg11.dtd" [
	<!ENTITY ns_flows "http://ns.adobe.com/Flows/1.0/">
]>
<svg version="1.1"
	 xmlns="http://www.w3.org/2000/svg" xmlns:xlink="http://www.w3.org/1999/xlink" xmlns:a="http://ns.adobe.com/AdobeSVGViewerExtensions/3.0/"
	 x="0px" y="0px" width="219px" height="244px" viewBox="-0.718 0 219 244"
	 overflow="visible" enable-background="new -0.718 0 219 244" xml:space="preserve">
<defs>
</defs>
<rect x="4.282" fill="#00529F" width="62.501" height="137.5"/>
<rect x="154.282" fill="#008D43" width="62.501" height="137.5"/>
<rect x="79.282" y="74.999" fill="#F15022" width="62.5" height="62.501"/>
<rect x="79.282" fill="#6B7B83" width="62.5" height="62.501"/>
<path fill="#6B7B83" d="M199.325,235.225l-2.581,0.927v1.219h7.337v-1.219l-2.871-0.927v-13.28h0.348l8.785,12.642l2.002,2.958
	h1.885v-16.499l2.58-0.927v-1.219h-7.336v1.219l2.871,0.927v10.787h-0.32l-6.814-9.974l-1.971-2.959h-6.495v1.276l2.581,0.9V235.225
	z M190.082,218.899h-14.991v1.219l3.161,0.667v14.701l-3.161,0.666v1.219h16.238l0.782-5.597l-0.87-0.115l-1.71,2.608
	c-0.726,1.103-1.248,1.364-2.958,1.364h-5.248v-6.815h1.508c1.74,0,2.349,0.348,2.928,2.378l0.261,0.898h1.015v-8.091h-1.015
	l-0.261,0.958c-0.551,2.029-1.188,2.349-2.928,2.349h-1.508v-6.698h3.915c1.797,0,2.291,0.261,3.219,1.45l1.479,1.941l0.84-0.203
	L190.082,218.899z M165.761,223.771c0,2.552-1.682,3.77-4.32,3.77h-1.915v-7.046c0.581-0.116,1.102-0.173,1.915-0.173
	C164.138,220.321,165.761,221.422,165.761,223.771 M169.153,223.626c0-3.016-2.464-4.728-7.046-4.728h-8.815v1.219l3.162,0.667
	v14.701l-3.162,0.666v1.219h9.25v-1.219l-3.016-0.666v-6.379h0.754c1.653,0,2.349,0.173,3.161,1.854l1.625,3.335
	c1.13,2.291,1.797,3.074,4.059,3.074h2.987v-1.219c-1.915-0.203-2.291-0.434-2.958-1.101c-0.666-0.667-1.217-1.943-2.03-3.538
	c-0.667-1.276-1.769-2.464-3.305-2.958v-0.318C167.124,227.57,169.153,226.207,169.153,223.626 M146.195,228.121
	c0,5.596-2.726,7.511-6.611,7.511h-3.102v-14.993h2.464C143.063,220.639,146.195,222.553,146.195,228.121 M133.407,220.785v14.701
	l-3.16,0.666v1.219h9.104c6.061,0,10.352-4.002,10.352-9.25c0-5.22-3.857-9.222-10.178-9.222h-9.278v1.219L133.407,220.785z
	 M126.223,231.484l-0.841-0.117l-1.797,2.61c-0.87,1.248-1.334,1.595-3.045,1.595h-4.465v-14.788l3.305-0.667v-1.219h-9.54v1.219
	l3.161,0.667v14.701l-3.161,0.666v1.219h15.629L126.223,231.484z M102.337,235.486v-14.701l3.248-0.667v-1.219h-9.598v1.219
	l3.277,0.667v14.701l-3.277,0.666v1.219h9.598v-1.219L102.337,235.486z M85.38,226.874H75.58v-6.088l3.016-0.667v-1.219h-9.25v1.219
	l3.161,0.667v14.701l-3.161,0.666v1.219h9.25v-1.219l-3.016-0.666V228.7h9.801v6.787l-3.016,0.666v1.219h9.25v-1.219l-3.161-0.666
	v-14.701l3.161-0.667v-1.219h-9.25v1.219l3.016,0.667V226.874z M64.51,232.441l-0.985-0.406l-2.726,3.625
	c-0.667,0.289-1.421,0.436-2.291,0.436c-4.61,0-7.278-3.016-7.278-8.294c0-4.32,2.233-7.771,5.712-7.771
	c2.667,0,4.088,1.567,5.886,4.611l1.247-0.058l-0.231-6.205h-1.189l-0.812,1.073c-1.247-0.639-2.609-0.986-4.582-0.986
	c-4.958,0-9.54,3.769-9.54,9.626c0,6.09,4.03,9.714,10.062,9.714c2.465,0,4.321-0.464,6.177-1.537L64.51,232.441z M28.375,237.371
	h2.407l1.798-8.207c1.188-1.391,1.855-2.146,2.871-2.667c0.667,0.492,1.217,0.782,1.914,0.782c0.87,0,1.711-0.695,1.711-1.768
	c0-1.015-0.638-1.654-1.769-1.654c-1.566,0-2.609,1.189-4.176,3.335l-0.29-0.087l0.725-3.132l-0.232-0.231l-4.785,1.507
	l-0.058,1.015l2.204,0.753L28.375,237.371z M19.393,235.979c-1.74,0-2.9-1.218-2.9-3.77c0-3.132,1.682-6.582,4.233-6.582
	c1.74,0,2.9,1.218,2.9,3.769C23.626,232.527,21.944,235.979,19.393,235.979 M18.348,237.689c4.553,0,7.945-4.551,7.945-8.901
	c0-3.277-2.088-4.872-4.523-4.872c-4.553,0-7.945,4.553-7.945,8.902C13.825,236.095,15.913,237.689,18.348,237.689 M2.146,243.72
	c1.16,0,2.262-0.492,3.189-1.391c1.798-1.74,2.378-3.219,3.132-7.482l1.479-8.553h3.248l0.348-1.77h-3.277l0.261-1.449
	c0.725-4.03,2.001-5.567,3.654-5.771c0.435,1.479,1.189,2.204,2.262,2.204c0.986,0,1.566-0.639,1.566-1.48
	c0-1.043-1.044-2.144-2.958-2.144c-1.334,0-2.581,0.376-3.654,1.188c-2,1.508-2.841,3.249-3.393,6.612l-0.116,0.695l-3.19,0.812
	l-0.232,1.103H7.51l-1.972,11.366c-0.406,2.262-0.841,3.538-1.682,4.291c-0.609-0.812-1.247-1.275-2.175-1.275
	c-0.986,0-1.682,0.608-1.682,1.393C0,242.909,0.754,243.72,2.146,243.72"/>
<path fill="#6B7B83" d="M199.325,204.334l-2.581,0.928v1.218h7.337v-1.218l-2.871-0.928v-13.279h0.348l8.785,12.643l2.002,2.958
	h1.885v-16.499l2.58-0.928v-1.218h-7.336v1.218l2.871,0.928v10.787h-0.32l-6.814-9.975l-1.971-2.958h-6.495v1.276l2.581,0.899
	V204.334z M188.719,197.232c0,5.654-2.639,8.234-5.306,8.234c-2.9,0-5.944-1.885-5.944-8.234c0-6.351,2.638-8.207,5.306-8.207
	C185.674,189.025,188.719,191.606,188.719,197.232 M192.228,197.232c0-5.22-3.219-9.657-9.047-9.657c-5.567,0-9.22,4.437-9.22,9.657
	c0,5.248,3.219,9.684,9.046,9.684C188.574,206.916,192.228,202.48,192.228,197.232 M166.195,204.596v-14.701l3.248-0.667v-1.218
	h-9.598v1.218l3.276,0.667v14.701l-3.276,0.667v1.218h9.598v-1.218L166.195,204.596z M155.618,193.461l-1.044-5.451h-16.035
	l-1.015,5.451l0.87,0.175l1.479-2.233c1.073-1.594,1.624-1.797,3.103-1.797h2.146v14.99l-3.363,0.667v1.218h9.801v-1.218
	l-3.363-0.667v-14.99h1.943c1.507,0,2.116,0.29,3.102,1.797l1.479,2.233L155.618,193.461z M128.394,198.739h-5.74l2.726-7.8h0.232
	L128.394,198.739z M133.672,204.481l-6.263-16.645h-2.465l-6.234,16.586l-2.407,0.84v1.218h6.496v-1.129l-2.146-0.842l1.449-4.205
	h6.844l1.566,4.408l-2.755,0.639v1.129h8.293v-1.218L133.672,204.481z M110.538,197.232c0,5.596-2.725,7.51-6.61,7.51h-3.103V189.75
	h2.465C107.407,189.75,110.538,191.664,110.538,197.232 M97.751,189.895v14.701l-3.16,0.667v1.218h9.105
	c6.061,0,10.352-4,10.352-9.249c0-5.22-3.857-9.222-10.178-9.222h-9.279v1.218L97.751,189.895z M72.936,204.334l-2.58,0.928v1.218
	h7.336v-1.218l-2.871-0.928v-13.279h0.348l8.786,12.643l2,2.958h1.885v-16.499l2.581-0.928v-1.218h-7.336v1.218l2.871,0.928v10.787
	h-0.319l-6.814-9.975l-1.972-2.958h-6.495v1.276l2.58,0.899V204.334z M61.663,190.156v9.453c0,3.335-1.653,5.423-4.698,5.423
	c-3.364,0-5.219-1.654-5.219-5.162v-9.975l3.161-0.667v-1.218h-9.163v1.218l2.871,0.667v10.033c0,4.697,2.9,7.046,7.568,7.046
	c4.611,0,7.365-2.871,7.365-6.93v-9.888l2.581-0.928v-1.218h-7.046v1.218L61.663,190.156z M39.023,197.232
	c0,5.654-2.639,8.234-5.307,8.234c-2.899,0-5.944-1.885-5.944-8.234c0-6.351,2.638-8.207,5.306-8.207
	C35.978,189.025,39.023,191.606,39.023,197.232 M42.532,197.232c0-5.22-3.219-9.657-9.047-9.657c-5.567,0-9.221,4.437-9.221,9.657
	c0,5.248,3.219,9.684,9.047,9.684C38.878,206.916,42.532,202.48,42.532,197.232 M20.007,192.911l-0.696-4.9H4.32v1.218l3.161,0.667
	v14.701l-3.161,0.667v1.218h9.569v-1.218l-3.335-0.667v-6.552h1.566c1.74,0,2.349,0.318,2.929,2.349l0.261,0.898h1.015v-8.089H15.31
	l-0.261,0.957c-0.551,2.029-1.189,2.377-2.929,2.377h-1.566v-6.813h3.77c1.827,0,2.407,0.174,3.364,1.45l1.479,1.942L20.007,192.911
	z"/>
<path fill="#6B7B83" d="M211.65,161.993c0,2.552-1.682,3.769-4.322,3.769h-1.912v-7.046c0.58-0.116,1.102-0.174,1.912-0.174
	C210.027,158.542,211.65,159.644,211.65,161.993 M215.042,161.847c0-3.015-2.465-4.726-7.047-4.726h-8.814v1.218l3.161,0.667v14.701
	l-3.161,0.667v1.218h9.25v-1.218l-3.016-0.667v-6.379h0.754c1.652,0,2.348,0.174,3.16,1.855l1.623,3.334
	c1.131,2.292,1.799,3.074,4.061,3.074H218v-1.218c-1.914-0.203-2.291-0.435-2.957-1.102c-0.668-0.667-1.219-1.943-2.031-3.538
	c-0.666-1.275-1.768-2.464-3.305-2.958v-0.318C213.011,165.791,215.042,164.428,215.042,161.847 M191.127,157.121h-14.992v1.218
	l3.161,0.667v14.701l-3.161,0.667v1.218h16.238l0.783-5.597l-0.87-0.116l-1.71,2.61c-0.725,1.102-1.248,1.363-2.958,1.363h-5.249
	v-6.814h1.508c1.74,0,2.349,0.348,2.929,2.378l0.261,0.899h1.015v-8.09h-1.015l-0.261,0.957c-0.551,2.03-1.188,2.349-2.929,2.349
	h-1.508v-6.698h3.915c1.797,0,2.291,0.26,3.219,1.45l1.479,1.943l0.84-0.203L191.127,157.121z M164.021,165.095h-9.801v-6.089
	l3.016-0.667v-1.218h-9.25v1.218l3.161,0.667v14.701l-3.161,0.667v1.218h9.25v-1.218l-3.016-0.667v-6.785h9.801v6.785l-3.016,0.667
	v1.218h9.25v-1.218l-3.16-0.667v-14.701l3.16-0.667v-1.218h-9.25v1.218l3.016,0.667V165.095z M141.324,170.662l-0.985-0.406
	l-2.727,3.625c-0.667,0.291-1.42,0.435-2.291,0.435c-4.61,0-7.277-3.016-7.277-8.293c0-4.321,2.232-7.771,5.712-7.771
	c2.667,0,4.088,1.566,5.886,4.611l1.247-0.058l-0.232-6.205h-1.188l-0.812,1.073c-1.248-0.638-2.61-0.986-4.582-0.986
	c-4.958,0-9.541,3.77-9.541,9.627c0,6.089,4.031,9.714,10.062,9.714c2.465,0,4.321-0.464,6.176-1.537L141.324,170.662z
	 M117.757,170.314c0-2.349-1.16-3.798-3.509-4.929c-1.073-0.522-1.914-0.841-2.929-1.276c-1.972-0.841-2.813-1.711-2.813-3.451
	c0-1.566,1.015-2.697,2.639-2.697c1.74,0,2.958,0.957,4.553,4.263l1.276-0.058l-0.494-5.567h-1.276l-0.492,0.87
	c-0.783-0.435-1.827-0.783-3.305-0.783c-2.958,0-5.597,1.885-5.597,5.248c0,2.291,1.16,3.712,3.218,4.727
	c0.899,0.435,1.624,0.667,2.551,1.073c2.437,1.044,3.48,2.087,3.48,3.74c0,1.885-1.131,3.277-3.247,3.277
	c-2.175,0-4.088-1.363-5.364-5.045l-1.276,0.058l0.348,6.351h1.305l0.493-0.899c1.073,0.464,2.726,0.812,4.205,0.812
	C114.654,176.027,117.757,174.026,117.757,170.314 M90.188,165.124l5.625-5.771l2.639-1.015v-1.218h-6.843v1.16l2.175,0.899
	l-5.654,6.089h-2.378v-6.263l2.755-0.667v-1.218h-8.989v1.218l3.16,0.667v14.701l-3.16,0.667v1.218h8.989v-1.218l-2.755-0.667
	v-6.785h2.262l5.394,6.872l-1.972,0.696v1.102h7.916v-1.218l-2.523-0.841L90.188,165.124z M72.709,170.662l-0.986-0.406
	l-2.726,3.625c-0.667,0.291-1.421,0.435-2.291,0.435c-4.61,0-7.278-3.016-7.278-8.293c0-4.321,2.233-7.771,5.712-7.771
	c2.667,0,4.088,1.566,5.886,4.611l1.247-0.058l-0.232-6.205h-1.189l-0.812,1.073c-1.247-0.638-2.61-0.986-4.582-0.986
	c-4.958,0-9.54,3.77-9.54,9.627c0,6.089,4.031,9.714,10.062,9.714c2.465,0,4.321-0.464,6.176-1.537L72.709,170.662z M47.461,157.121
	H32.47v1.218l3.161,0.667v14.701l-3.161,0.667v1.218h16.238l0.783-5.597l-0.87-0.116l-1.71,2.61
	c-0.725,1.102-1.247,1.363-2.958,1.363h-5.249v-6.814h1.508c1.74,0,2.349,0.348,2.929,2.378l0.261,0.899h1.015v-8.09h-1.015
	l-0.261,0.957c-0.551,2.03-1.189,2.349-2.929,2.349h-1.508v-6.698h3.915c1.798,0,2.291,0.26,3.219,1.45l1.479,1.943l0.841-0.203
	L47.461,157.121z M20.355,165.095h-9.801v-6.089l3.016-0.667v-1.218H4.32v1.218l3.161,0.667v14.701l-3.161,0.667v1.218h9.25v-1.218
	l-3.016-0.667v-6.785h9.801v6.785l-3.016,0.667v1.218h9.25v-1.218l-3.161-0.667v-14.701l3.161-0.667v-1.218h-9.25v1.218l3.016,0.667
	V165.095z"/>
</svg>
